<svg width="67" height="76" xmlns="http://www.w3.org/2000/svg" xmlns:xlink="http://www.w3.org/1999/xlink" xmlns:svgjs="http://svgjs.com/svgjs" viewBox="0.045 0 66.909 76"><svg xmlns="http://www.w3.org/2000/svg" width="67" height="76" viewBox="1.991 1.994 66.013 74.982" fill="#fff"><path fill="#000" paint-order="stroke fill markers" fill-rule="evenodd" d="M62.994 31.564L38.122 6.718a6.608 6.608 0 0 0-9.327 0c-2.311 2.309-2.51 5.83-.803 8.345l-.035.173a45.957 45.957 0 0 1-12.625 23.566L3.924 50.2a6.58 6.58 0 0 0 0 9.317l6.218 6.211a6.596 6.596 0 0 0 9.327 0l1.554-1.552 10.882 10.87a6.59 6.59 0 1 0 9.327-9.317l-4.664-4.66 1.554-1.552a6.58 6.58 0 0 0 0-9.317l-1.056-1.056a46.047 46.047 0 0 1 17.401-7.424l.176-.035c2.573 1.735 6.09 1.457 8.351-.802a6.591 6.591 0 0 0 0-9.318zM16.36 62.622a2.199 2.199 0 0 1-3.109 0L7.033 56.41a2.193 2.193 0 0 1 0-3.105l10.881-10.871 9.327 9.318-10.881 10.87zm21.762 6.211a2.197 2.197 0 0 1-3.109 3.106l-10.88-10.87 3.108-3.106 10.881 10.87zM30.35 54.857c.66-.66 1.65-1.671 3.211-3.003l1.452 1.45c.86.859.86 2.248 0 3.106l-1.554 1.553-3.109-3.106zm.093-6.118l-9.513-9.504a50.277 50.277 0 0 0 10.703-20.366L50.83 38.047a50.36 50.36 0 0 0-20.387 10.692zm29.442-10.964c-.86.859-2.25.859-3.11 0L31.906 12.93a2.193 2.193 0 0 1 0-3.106 2.2 2.2 0 0 1 3.108 0L59.885 34.67c.857.856.857 2.25 0 3.105zM19.469 50.198a2.2 2.2 0 0 0-3.11 0l-3.108 3.106a2.195 2.195 0 0 0 0 3.106 2.2 2.2 0 0 0 3.109 0l3.109-3.106a2.194 2.194 0 0 0 0-3.106zm28.75-48.204a2.197 2.197 0 0 0-2.198 2.197v4.392a2.197 2.197 0 1 0 4.397 0V4.191a2.197 2.197 0 0 0-2.199-2.197zm17.587 17.57h-4.397a2.197 2.197 0 1 0 0 4.391h4.397a2.197 2.197 0 1 0 0-4.392zM62.963 7.03a2.2 2.2 0 0 0-3.108 0l-4.397 4.392a2.194 2.194 0 0 0 0 3.106 2.2 2.2 0 0 0 3.109 0l4.396-4.393a2.194 2.194 0 0 0 0-3.105z"/></svg></svg>